PathFileType	4	(X/Y/Z)	D:\TRACE\spot_10-12-23\spot_arm_motion_1_2-v60.trc
DataRate	CameraRate	NumFrames	NumMarkers	Units	OrigDataRate	OrigDataStartFrame	OrigNumFrames
100.00	100.00	      17	9	mm	100.00	1	      7000
Frame#	Time	front left toe			Front right toe			aft left toe			aft right toe			Arm			FL body			FR body			AL Body			AR Body			
		X1	Y1	Z1	X2	Y2	Z2	X3	Y3	Z3	X4	Y4	Z4	X5	Y5	Z5	X6	Y6	Z6	X7	Y7	Z7	X8	Y8	Z8	X9	Y9	Z9	

1	0.000	-323.55994	21.31315	-34.93343	191.44122	23.95079	-125.42219	-214.31290	22.54737	550.11694	295.78986	18.51280	456.73871	-80.58422	854.26556	-263.03757	-163.29457	542.01331	-183.59746	-13.82314	546.91278	-213.20401	1.54711	552.36554	684.28027	150.07469	551.36255	658.98047	
2	0.010	-323.56931	21.31768	-34.94589	191.49055	23.96035	-125.44983	-214.30679	22.50998	550.12677	295.83035	18.47310	456.74652	-80.91233	855.02893	-262.91577	-163.26636	542.00726	-183.67499	-13.60004	546.78009	-213.16887	1.42691	552.31415	684.39697	150.07002	551.34595	658.98956	
3	0.020	-323.55042	21.33754	-34.94538	191.53806	23.92985	-125.39217	-214.32048	22.52476	550.12616	295.87265	18.56978	456.79941	-81.38647	855.63513	-262.85724	-163.23877	542.03308	-183.68497	-13.76968	546.92114	-213.23119	1.43732	552.35455	684.37610	150.05952	551.40039	658.95081	
4	0.030	-323.52457	21.33212	-34.95614	191.44624	24.11950	-125.35617	-214.29329	22.53022	550.11401	295.95184	18.63353	456.85327	-81.74239	856.40759	-262.70978	-163.19936	542.03729	-183.72026	-13.75887	546.91754	-213.24623	1.55782	552.40063	684.25610	150.14735	551.44299	658.91827	
5	0.040	-323.53937	21.32731	-34.93998	191.49637	23.95271	-125.39988	-214.30298	22.53430	550.11743	295.73434	18.42561	456.73877	-82.10146	857.11926	-262.59061	-163.17982	542.01129	-183.73970	-13.59429	546.77710	-213.28758	1.47368	552.37952	684.32587	150.13029	551.44110	658.89050	
6	0.050	-323.55145	21.32420	-34.93830	191.50993	23.95259	-125.41361	-214.27631	22.52569	550.13458	295.94128	18.57401	456.77216	-82.69203	857.94214	-262.61423	-163.16008	542.02515	-183.73724	-13.78921	546.94855	-213.28738	1.44967	552.39661	684.31995	149.73909	550.83057	658.23254	
7	0.060	-323.54865	21.33053	-34.95364	191.41267	24.09333	-125.41684	-214.29518	22.52979	550.12842	295.96649	18.57329	456.77774	-83.21203	858.55682	-262.51318	-163.24023	542.05121	-183.79137	-13.74625	546.95135	-213.28380	1.45475	552.39264	684.28864	149.71867	550.83911	658.19940	
8	0.070	-323.54556	21.32190	-34.94408	191.46693	23.95774	-125.45673	-214.30434	22.54274	550.11310	295.88092	18.53542	456.79523	-83.66150	859.11633	-262.43549	-163.19601	542.04608	-183.80525	-13.50373	546.70563	-213.26143	1.64424	552.40503	684.60327	149.73796	550.87726	658.18127	
9	0.080	-323.53958	21.30029	-34.92657	191.49312	23.93685	-125.42947	-214.28822	22.52756	550.11426	295.86438	18.50033	456.77664	-84.24509	859.95874	-262.46268	-163.26814	542.09436	-183.78587	-13.75065	546.96643	-213.30322	1.65620	552.41473	684.58124	149.75905	550.90735	658.15875	
10	0.090	-323.56067	21.32838	-34.94233	191.50214	23.99309	-125.41811	-214.29404	22.56367	550.10724	295.83337	18.46409	456.78143	-84.61736	860.30377	-262.38776	-163.32661	542.13556	-183.83344	-13.62179	546.84607	-213.25023	1.69764	552.43066	684.54639	149.78371	550.93640	658.11816	
11	0.100	-323.53513	21.32868	-34.92702	191.54257	23.93846	-125.36091	-214.30688	22.57269	550.09198	295.81445	18.51910	456.75226	-85.20704	860.79303	-262.47366	-163.33754	542.12891	-183.79501	-13.85170	547.03571	-213.32393	1.64409	552.46368	684.55591	149.76637	550.96625	658.12579	
12	0.110	-323.56085	21.32302	-34.91849	191.47250	23.95093	-125.40142	-214.29810	22.53856	550.11255	295.75562	18.46492	456.71713	-85.78790	861.29346	-262.47214	-163.30731	542.15088	-183.85641	-13.89650	547.06494	-213.35696	1.61293	552.46729	684.54987	149.78400	550.96826	658.12775	
13	0.120	-323.52658	21.29575	-34.92821	191.52126	23.94863	-125.43033	-214.29747	22.55609	550.09845	295.85370	18.49498	456.75836	-86.16900	861.52191	-262.41998	-163.39574	542.17078	-183.84328	-13.97288	547.11395	-213.38527	1.63736	552.45953	684.52460	149.70807	550.98340	658.10028	
14	0.130	-323.56128	21.29905	-34.90631	191.43510	23.97661	-125.45061	-214.29115	22.54315	550.09985	295.82275	18.54905	456.80902	-86.79768	861.81146	-262.34698	-163.45412	542.20502	-183.84779	-13.97627	547.11102	-213.41383	1.62154	552.48950	684.50739	149.72185	550.97797	658.09143	
15	0.140	-323.56015	21.31413	-34.92170	191.39488	24.11665	-125.36903	-214.28998	22.53459	550.09747	295.90787	18.54765	456.74353	-87.28288	862.13733	-262.28387	-163.50218	542.21130	-183.85356	-13.99098	547.15674	-213.42941	1.59872	552.51495	684.48218	149.73347	551.03406	658.07367	
16	0.150	-323.57462	21.28996	-34.90433	191.34515	24.11556	-125.38124	-214.34052	22.57861	550.07996	295.78067	18.52258	456.72070	-87.68034	862.33673	-262.15454	-163.50534	542.31824	-183.83659	-14.06646	547.24817	-213.44513	1.54678	552.56384	684.44696	149.72249	550.91754	658.03387	
17	0.160	-323.56949	21.27205	-34.92964	191.40892	23.97268	-125.45546	-214.35062	22.53710	550.07135	295.72601	18.37497	456.66074	-87.84047	862.39685	-262.71088	-163.51314	542.34998	-183.79405	-14.16478	547.35999	-213.42650	1.55863	552.42749	684.51855	149.67361	550.91101	658.05139	
